<?xml version="1.0" encoding="utf-8"?>
<!-- Generator: Adobe Illustrator 26.0.0, SVG Export Plug-In . SVG Version: 6.00 Build 0)  -->
<svg version="1.1" xmlns="http://www.w3.org/2000/svg" xmlns:xlink="http://www.w3.org/1999/xlink" x="0px" y="0px"
	 viewBox="0 0 500 500" style="enable-background:new 0 0 500 500;" xml:space="preserve">
<style type="text/css">
	.st0{fill:#FFFFFF;}
	.st1{fill:#B6B9D1;}
	.st2{fill:#C46C3B;}
	.st3{fill:#AA5327;}
	.st4{fill:#171923;}
	.st5{fill:#2A2B3D;}
	.st6{fill:#D0E6EF;}
	.st7{fill:#D35473;}
	.st8{fill:#FFC55A;}
	.st9{fill:#54D15F;}
	.st10{fill:none;stroke:#61648A;stroke-width:0.5;stroke-linecap:round;stroke-miterlimit:10;}
	.st11{fill:none;stroke:#54D15F;stroke-linecap:round;stroke-miterlimit:10;}
	.st12{fill:none;stroke:#2D292A;stroke-linecap:round;stroke-miterlimit:10;}
	.st13{fill:none;stroke:#FFC55A;stroke-linecap:round;stroke-miterlimit:10;}
	.st14{fill:none;stroke:#D35473;stroke-linecap:round;stroke-miterlimit:10;}
	.st15{opacity:0.21;fill:none;stroke:#383952;stroke-linecap:round;stroke-miterlimit:10;}
	.st16{opacity:0.33;fill:#61648A;}
	.st17{fill:#61648A;}
	.st18{fill:#55597C;}
	.st19{opacity:0.36;fill:#383952;}
	.st20{fill:#F4B8AB;}
	.st21{opacity:0.53;fill:#DD6595;}
	.st22{fill:#6D3744;}
	.st23{fill:#542633;}
	.st24{opacity:0.38;fill:#8E253E;}
	.st25{fill:#7D819E;}
	.st26{fill:#F49947;}
	.st27{fill:#14161E;}
	.st28{fill:#1F202D;}
	.st29{fill:none;stroke:#61648A;stroke-width:4;stroke-miterlimit:10;}
	.st30{fill:#61648A;stroke:#2A2B3D;stroke-width:4;stroke-miterlimit:10;}
	.st31{font-family:'Lato-Black';}
	.st32{font-size:20.0541px;}
	.st33{letter-spacing:-2;}
	.st34{font-family:'FontAwesome5FreeSolid';}
	.st35{font-size:14.3395px;}
	.st36{letter-spacing:-1;}
	.st37{fill:#424866;}
</style>
<g id="BACKGROUND">
	<rect class="st0" width="500" height="500"/>
</g>
<g id="OBJECTS">
	<g>
		<path class="st1" d="M455.18,443.62H27.77c-2.98,0-5.4-2.42-5.4-5.4l0,0c0-2.98,2.42-5.4,5.4-5.4h427.41c2.98,0,5.4,2.42,5.4,5.4
			l0,0C460.58,441.21,458.16,443.62,455.18,443.62z"/>
		<g>
			<g>
				<rect x="59.42" y="295.46" class="st2" width="265.85" height="10.53"/>
				<rect x="81.56" y="305.08" class="st2" width="11.78" height="133.55"/>
				<rect x="292.38" y="305.08" class="st2" width="11.78" height="133.55"/>
				<rect x="81.56" y="305.08" class="st3" width="11.78" height="13.35"/>
				<rect x="292.38" y="305.08" class="st3" width="11.78" height="13.35"/>
			</g>
			<g>
				<polygon class="st4" points="248.26,290.4 219.33,290.4 221.27,271.42 246.33,271.42 				"/>
				<path class="st5" d="M256.25,295.05h-44.76l0,0c0-3,2.43-5.43,5.43-5.43h33.89C253.82,289.62,256.25,292.05,256.25,295.05
					L256.25,295.05z"/>
				<path class="st5" d="M282.24,273.06H185.5c-5.25,0-9.51-4.26-9.51-9.51v-58.37c0-5.25,4.26-9.51,9.51-9.51h96.74
					c5.25,0,9.51,4.26,9.51,9.51v58.37C291.76,268.8,287.5,273.06,282.24,273.06z"/>
				<rect x="180.91" y="200.08" class="st6" width="105.92" height="62.92"/>
				<path class="st4" d="M236.87,268.43c0,1.65-1.34,3-3,3s-3-1.34-3-3s1.34-3,3-3S236.87,266.77,236.87,268.43z"/>
				<g>
					<rect x="185.87" y="204" class="st0" width="95.99" height="4.93"/>
					<path class="st7" d="M189.84,206.58c0,0.58-0.47,1.05-1.05,1.05c-0.58,0-1.05-0.47-1.05-1.05c0-0.58,0.47-1.05,1.05-1.05
						C189.37,205.53,189.84,206,189.84,206.58z"/>
					<path class="st8" d="M193.75,206.58c0,0.58-0.47,1.05-1.05,1.05c-0.58,0-1.05-0.47-1.05-1.05c0-0.58,0.47-1.05,1.05-1.05
						C193.28,205.53,193.75,206,193.75,206.58z"/>
					<path class="st9" d="M197.67,206.58c0,0.58-0.47,1.05-1.05,1.05s-1.05-0.47-1.05-1.05c0-0.58,0.47-1.05,1.05-1.05
						S197.67,206,197.67,206.58z"/>
					<line class="st10" x1="277.29" y1="205.38" x2="280.49" y2="205.38"/>
					<line class="st10" x1="277.29" y1="206.47" x2="280.49" y2="206.47"/>
					<line class="st10" x1="277.29" y1="207.55" x2="280.49" y2="207.55"/>
				</g>
				<g>
					<g>
						<line class="st11" x1="251.25" y1="214.49" x2="258.69" y2="214.49"/>
						<line class="st12" x1="260.17" y1="214.49" x2="263.66" y2="214.49"/>
						<line class="st11" x1="264.95" y1="214.49" x2="275.95" y2="214.49"/>
						<line class="st13" x1="247.52" y1="219.19" x2="258.45" y2="219.19"/>
						<line class="st14" x1="259.93" y1="219.19" x2="266.94" y2="219.19"/>
						<line class="st11" x1="268.23" y1="219.19" x2="272.9" y2="219.19"/>
						<line class="st14" x1="274.37" y1="219.19" x2="279.04" y2="219.19"/>
						<line class="st12" x1="248.51" y1="223.88" x2="254.83" y2="223.88"/>
						<line class="st14" x1="256.31" y1="223.88" x2="261.27" y2="223.88"/>
						<line class="st13" x1="262.56" y1="223.88" x2="271.54" y2="223.88"/>
						<line class="st12" x1="272.75" y1="223.88" x2="275.54" y2="223.88"/>
						<line class="st13" x1="245.52" y1="233.27" x2="247.14" y2="233.27"/>
						<line class="st11" x1="248.62" y1="233.27" x2="257.8" y2="233.27"/>
						<line class="st14" x1="259.09" y1="233.27" x2="265.69" y2="233.27"/>
						<line class="st11" x1="266.69" y1="233.27" x2="275.14" y2="233.27"/>
						<line class="st13" x1="264.2" y1="242.66" x2="276.45" y2="242.66"/>
						<line class="st11" x1="248.51" y1="237.96" x2="254.83" y2="237.96"/>
						<line class="st14" x1="256.31" y1="237.96" x2="259.68" y2="237.96"/>
						<line class="st12" x1="260.97" y1="237.96" x2="267.84" y2="237.96"/>
						<line class="st14" x1="269.44" y1="237.96" x2="276.31" y2="237.96"/>
						<line class="st13" x1="248.81" y1="242.66" x2="253.62" y2="242.66"/>
						<line class="st12" x1="255.11" y1="242.66" x2="257.16" y2="242.66"/>
						<line class="st11" x1="258.45" y1="242.66" x2="262.67" y2="242.66"/>
						<line class="st14" x1="256.31" y1="251.48" x2="260.97" y2="251.48"/>
						<line class="st12" x1="262.46" y1="251.48" x2="267.84" y2="251.48"/>
						<line class="st13" x1="269.13" y1="251.48" x2="277.73" y2="251.48"/>
						<line class="st14" x1="252.04" y1="256.17" x2="255.57" y2="256.17"/>
						<line class="st12" x1="257.05" y1="256.17" x2="262.67" y2="256.17"/>
						<line class="st13" x1="263.96" y1="256.17" x2="269.06" y2="256.17"/>
						<line class="st11" x1="270.52" y1="256.17" x2="278.43" y2="256.17"/>
					</g>
					<line class="st15" x1="246.73" y1="214.49" x2="248.32" y2="214.49"/>
					<line class="st15" x1="242.57" y1="219.19" x2="244.15" y2="219.19"/>
					<line class="st15" x1="244.49" y1="223.88" x2="246.08" y2="223.88"/>
					<line class="st15" x1="240.71" y1="228.57" x2="242.3" y2="228.57"/>
					<line class="st15" x1="240.71" y1="233.27" x2="242.3" y2="233.27"/>
					<line class="st15" x1="244.29" y1="237.96" x2="245.88" y2="237.96"/>
					<line class="st15" x1="244.73" y1="242.66" x2="246.31" y2="242.66"/>
					<line class="st15" x1="240.71" y1="247.35" x2="242.3" y2="247.35"/>
					<line class="st15" x1="250.87" y1="251.48" x2="252.46" y2="251.48"/>
					<line class="st15" x1="247.14" y1="256.17" x2="248.73" y2="256.17"/>
				</g>
				<g>
					<rect x="185.87" y="213.33" class="st16" width="24.03" height="22.71"/>
					<rect x="212.91" y="213.33" class="st17" width="21.03" height="2.06"/>
					<rect x="212.91" y="218.49" class="st17" width="21.03" height="2.06"/>
					<rect x="212.91" y="223.66" class="st16" width="21.03" height="2.06"/>
					<rect x="212.91" y="228.82" class="st16" width="21.03" height="2.06"/>
					<rect x="212.91" y="233.98" class="st16" width="21.03" height="2.06"/>
					<rect x="185.94" y="239.5" class="st17" width="23.96" height="16.67"/>
					<rect x="212.91" y="239.5" class="st7" width="21.03" height="7.85"/>
					<rect x="212.91" y="251.31" class="st17" width="21.03" height="4.86"/>
				</g>
			</g>
			<g>
				<path class="st5" d="M228.94,420.39c-1.2,11.04-2.78,15.96,0,17.53c2.78,1.58,18.49,0,21.9,0s3.41-7.18-2.27-10.18
					c-5.68-3-6.82-13.71-6.82-13.71L228.94,420.39z"/>
				<path class="st5" d="M157.6,420.39c-1.2,11.04-2.78,15.96,0,17.53c2.78,1.58,18.49,0,21.9,0c3.41,0,3.41-7.18-2.27-10.18
					c-5.68-3-6.82-13.71-6.82-13.71L157.6,420.39z"/>
				<path class="st18" d="M176.27,377.8c-0.31,11.85-1.17,22.98-2.66,29.89h-21.92l-8.16-47.82l-0.84-4.91
					c-4.65,0-8.44-3.76-8.44-8.4v-0.15c0.15-9.47,1.79-24.17,9.94-29.82c9.08-6.29,27.29,6.96,28.91,10.23
					c1.58,3.18,2.67,14.1,3.1,27.21C176.45,361.58,176.48,369.85,176.27,377.8z"/>
				<path class="st19" d="M176.27,377.8c-7.74,3.34-14.06,23.97-15.73,29.89h-8.85l-8.16-47.82c0.99-1.63,2.09-2.96,3.26-3.69
					c3.98-2.49,26.96-2.19,29.41-2.15C176.45,361.58,176.48,369.85,176.27,377.8z"/>
				<path class="st20" d="M248.3,286.95c6.99-2.63,11.85,0.43,13.11,2.59c1.26,2.16,1.98,4.14,1.44,5.23c-0.54,1.08-2.34,0-2.34,0
					s-6.13,1.14-10.81,0.48C245.02,294.59,248.3,286.95,248.3,286.95z"/>
				<path class="st21" d="M249.48,288.99c3.79,2.04,10.41,4.92,10.38,5.41c-0.03,0.49-5.94,1.83-9.7,0.79
					C246.4,294.14,249.48,288.99,249.48,288.99z"/>
				<g>
					<path class="st20" d="M181.93,203.72c2.65,10.84,0.72,23.62-8.57,24.64l0.04,3.81c0.03,2.82-2.24,5.14-5.06,5.17l0,0
						c-2.82,0.03-5.14-2.24-5.17-5.06l-0.04-3.81c0,0-7.47-3.09-9.01-7.72c-1.53-4.63-0.01-0.74-0.01-0.74l-0.85-18.96l28.87-0.29
						L181.93,203.72z"/>
					<path class="st21" d="M173.36,228.35c-4.12,0.41-8.89,0.31-8.89,0.31l8.93,3.5L173.36,228.35z"/>
				</g>
				<path class="st22" d="M182.38,205.81c8.2-5.18,6.65-15.86,0.84-12.07c0,0-9.16-9.42-23.36-4.28
					c-14.2,5.14-15.98,17.03-12.98,24.44c3,7.4,21.39,11.25,21.39,11.25l8.5-9.02L182.38,205.81z"/>
				<path class="st22" d="M183.21,193.75c1.42-4.13-2.14-9.38-5.46-9.38c-3.32,0-3.13,5.7-3.13,5.7l5.67,7.5L183.21,193.75z"/>
				<path class="st23" d="M177.09,212.89c-0.1,1.29-1.08,12.92-3.74,15.47l-11.45,0.16c0,0-12.63-2.57-14.74-13.07
					c-0.24-1.23-0.42-2.37-0.51-3.42c3.73,7.58,19.48,8.86,27.98-0.71C174.63,211.3,175.71,211.97,177.09,212.89z"/>
				<path class="st20" d="M180.3,210.61c-2.38-4.24-5.11-2.43-5.64,0.06c-0.53,2.48,4.49,8.46,5.7,6.33
					C181.58,214.87,180.3,210.61,180.3,210.61z"/>
				<path class="st21" d="M180.06,211.76c-2.11-2.17-3.12-1.26-2.96,1.01c0.16,2.27,2.92,3.88,3.8,3.22
					C181.78,215.33,180.06,211.76,180.06,211.76z"/>
				<path class="st7" d="M250.16,295.18c-1.11,2.21-29.91,6.64-37.29,5.17c-7.39-1.48-13.29-12.19-13.29-12.19v28.43h-55.39
					c0,0-5.38-26.13-8.38-43.6c-1.23-7.19-2.07-12.91-1.96-14.74c0.22-3.69,0.95-5.72,1.52-6.77v-0.01c0.39-0.72,0.7-0.97,0.7-0.97
					s6.64-12.18,22.52-14.03l0.37-4.8c12.92-2.58,22.15,0,22.52,2.22c0.37,2.21,0,4.39,0,4.39s15.51-4.03,26.59,11.85
					c11.07,15.88,15.51,28.42,15.51,28.42s21.04,4.44,23.63,7.03c1.06,1.06,1.94,2.5,2.52,3.97
					C250.57,291.67,250.81,293.87,250.16,295.18z"/>
				<path class="st24" d="M250.16,295.18c-1.11,2.21-29.91,6.64-37.29,5.17c-7.39-1.48-13.29-12.19-13.29-12.19v28.43h-55.39
					c0,0-5.38-26.13-8.38-43.6l-0.44-21.51v-0.01c0,0,13.52,0.45,34.23,0.59c20.71,0.14,21.84,12.96,27.47,20.71
					c5.64,7.75,9.3,20.85,19.31,20.99c10,0.14,30.99,1.83,33.1-4.15l0.25-0.06C250.57,291.67,250.81,293.87,250.16,295.18z"/>
				<path class="st17" d="M245.28,406.01c-0.11,0.58-0.22,1.14-0.34,1.68h-21.91l-9-52.73h-39.41l-11.19-14.11l-19.24-24.26h55.39
					c0.84,0,1.71,0.01,2.61,0.03c15.1,0.27,38.62,2.9,42.25,10.2c1.3,2.63,2.27,10.57,2.8,20.66
					C248.25,366.24,247.78,392.46,245.28,406.01z"/>
				<path class="st19" d="M245.28,406.01l-1.92,1.68h-20.33l-9-52.73h-39.41l-11.19-14.11l1.03-16.17l7.51-8.09h27.61
					c0.84,0,1.71,0.01,2.61,0.03c-3.12,26.67,16.27,33.63,28.68,32.95c6.59-0.36,12.35-1.28,16.37-2.09
					C248.25,366.24,247.78,392.46,245.28,406.01z"/>
				<polygon class="st25" points="244.78,420.39 222.96,420.39 220.96,407.69 246.78,407.69 				"/>
				<polygon class="st25" points="173.45,420.39 151.62,420.39 149.62,407.69 175.45,407.69 				"/>
			</g>
			<g>
				<rect x="134.51" y="428.29" class="st18" width="1.99" height="7.46"/>
				<rect x="148.63" y="428.29" class="st18" width="1.99" height="7.46"/>
				<rect x="162.74" y="428.29" class="st18" width="1.99" height="7.46"/>
				<path class="st8" d="M185.14,354.96h-57.41c-3.89,0-7.05-3.15-7.05-7.05v-66.6c0-13.43,10.88-24.31,24.31-24.31h22.88
					c13.43,0,24.31,10.88,24.31,24.31v66.6C192.19,351.81,189.04,354.96,185.14,354.96z"/>
				<path class="st26" d="M185.14,354.96h-57.41c-3.89,0-7.05-3.15-7.05-7.05v-66.6c0-13.43,10.88-24.31,24.31-24.31h22.88
					c13.43,0,24.31,10.88,24.31,24.31v66.6C192.19,351.81,189.04,354.96,185.14,354.96z"/>
				<path class="st8" d="M172.91,354.96H115.5c-3.89,0-7.05-3.15-7.05-7.05v-66.6c0-13.43,10.88-24.31,24.31-24.31h22.88
					c13.43,0,24.31,10.88,24.31,24.31v66.6C179.96,351.81,176.8,354.96,172.91,354.96z"/>
				<path class="st26" d="M196.61,369.28H134.5c-3.95,0-7.16-3.21-7.16-7.16v0c0-3.95,3.2-7.16,7.16-7.16h62.12
					c3.95,0,7.16,3.21,7.16,7.16v0C203.77,366.08,200.57,369.28,196.61,369.28z"/>
				<path class="st8" d="M178.4,369.28h-62.12c-3.95,0-7.16-3.21-7.16-7.16v0c0-3.95,3.21-7.16,7.16-7.16h62.12
					c3.95,0,7.16,3.21,7.16,7.16v0C185.55,366.08,182.35,369.28,178.4,369.28z"/>
				<rect x="146.88" y="375.08" class="st27" width="5.78" height="50.94"/>
				<path class="st28" d="M157.94,375.08h-17.02c-1.2,0-2.17-0.97-2.17-2.17v-3.63h21.35v3.63
					C160.11,374.11,159.14,375.08,157.94,375.08z"/>
				<rect x="132.41" y="424.73" class="st28" width="34.05" height="5.07"/>
				<rect x="139.23" y="313.44" class="st5" width="7.56" height="55.84"/>
				<path class="st28" d="M147.76,302.97h-9.49c-2.22,0-4.02,1.8-4.02,4.02v11.44c0,2.22,1.8,4.02,4.02,4.02h9.49
					c2.22,0,4.02-1.8,4.02-4.02v-11.44C151.78,304.77,149.98,302.97,147.76,302.97z"/>
				<path class="st5" d="M143.38,307.83h-0.74c-2.22,0-4.02,1.8-4.02,4.02v1.72c0,2.22,1.8,4.02,4.02,4.02h0.74
					c2.22,0,4.02-1.8,4.02-4.02v-1.72C147.4,309.63,145.6,307.83,143.38,307.83z"/>
				<path class="st27" d="M138.61,436.25c0,1.71-1.39,3.1-3.1,3.1s-3.1-1.39-3.1-3.1c0-1.71,1.39-3.1,3.1-3.1
					S138.61,434.54,138.61,436.25z"/>
				<path class="st27" d="M152.72,436.25c0,1.71-1.39,3.1-3.1,3.1c-1.71,0-3.1-1.39-3.1-3.1c0-1.71,1.39-3.1,3.1-3.1
					C151.33,433.15,152.72,434.54,152.72,436.25z"/>
				<path class="st27" d="M166.84,436.25c0,1.71-1.39,3.1-3.1,3.1c-1.71,0-3.1-1.39-3.1-3.1c0-1.71,1.39-3.1,3.1-3.1
					C165.45,433.15,166.84,434.54,166.84,436.25z"/>
			</g>
			<g>
				<polyline class="st29" points="89.67,292.51 59.42,230.26 92.5,198.83 				"/>
				<path class="st30" d="M65.21,230.26c0,3.2-2.59,5.79-5.79,5.79s-5.79-2.59-5.79-5.79c0-3.2,2.59-5.79,5.79-5.79
					S65.21,227.06,65.21,230.26z"/>
				<path class="st17" d="M90.98,187.79L90.98,187.79c2.61-1.81,6.21-1.06,7.88,1.63l1.19,1.9l-9,5.95l-1.1-1.26
					C87.77,193.52,88.25,189.68,90.98,187.79z"/>
				<path class="st8" d="M116.79,216.82c0,2.7-2.19,4.88-4.88,4.88c-2.7,0-4.88-2.19-4.88-4.88s2.19-4.88,4.88-4.88
					C114.61,211.93,116.79,214.12,116.79,216.82z"/>
				<path class="st5" d="M91.05,197.28l9.11,23.26c0.62,1.59,2.43,2.35,3.99,1.67c3.91-1.7,10.84-5.13,14.47-9.49
					c1.02-1.22,0.9-3.03-0.25-4.12l-18.31-17.27L91.05,197.28z"/>
				<rect x="74.91" y="290.13" class="st5" width="29.51" height="4.76"/>
			</g>
			<g>
				<g>
					<rect x="187.74" y="72.44" class="st6" width="92.75" height="92.75"/>
					
						<ellipse transform="matrix(0.2281 -0.9736 0.9736 0.2281 112.3031 286.5414)" class="st17" cx="236.87" cy="72.44" rx="16.94" ry="16.94"/>
					<rect x="213.48" y="106" class="st17" width="53.57" height="9.37"/>
					<rect x="204.11" y="106" class="st0" width="9.37" height="9.37"/>
					<rect x="213.48" y="120.46" class="st17" width="53.57" height="9.37"/>
					<rect x="239.77" y="134.93" class="st16" width="27.28" height="4.68"/>
					<rect x="204.11" y="120.46" class="st0" width="9.37" height="9.37"/>
				</g>
				<g>
					<rect x="272.36" y="80.19" class="st7" width="45.85" height="23.32"/>
					<polygon class="st7" points="285.42,100.34 277.63,114.27 298.12,101.57 					"/>
					<g>
						<path class="st0" d="M287.09,91.85c0,1.19-0.96,2.15-2.15,2.15c-1.19,0-2.15-0.96-2.15-2.15c0-1.19,0.96-2.15,2.15-2.15
							C286.13,89.7,287.09,90.67,287.09,91.85z"/>
						<path class="st0" d="M297.43,91.85c0,1.19-0.96,2.15-2.15,2.15c-1.19,0-2.15-0.96-2.15-2.15c0-1.19,0.96-2.15,2.15-2.15
							C296.47,89.7,297.43,90.67,297.43,91.85z"/>
						<circle class="st0" cx="305.63" cy="91.85" r="2.15"/>
					</g>
				</g>
				<rect x="155.5" y="132.67" class="st8" width="40.07" height="27.76"/>
				<text transform="matrix(1 0 0 1 161.8717 153.4078)" class="st0 st31 st32 st33">&lt;/&gt;</text>
				<text transform="matrix(1 0 0 1 229.5226 77.0633)" class="st0 st34 st35 st36">user</text>
			</g>
			<g>
				<path class="st7" d="M303.72,414.04c1.2,11.04,2.4,22.31-0.37,23.88c-2.78,1.58-18.49,0-21.9,0c-3.41,0-3.41-7.18,2.27-10.18
					c5.68-3,6.82-13.71,6.82-13.71H303.72z"/>
				<path class="st7" d="M372.2,420.39c1.2,11.04,2.78,15.96,0,17.53c-2.78,1.58-18.49,0-21.9,0s-3.41-7.18,2.27-10.18
					c5.68-3,5.71-8.54,5.71-8.54L372.2,420.39z"/>
				<path class="st23" d="M280.89,147.93c-4.64,9.31-4.08,18.8,5.2,19.19C295.37,167.5,280.89,147.93,280.89,147.93z"/>
				<g>
					<g>
						<path class="st20" d="M282.35,157.66c2.91,11.43,11.06,22.4,20.24,18.74l1.86,3.58c1.38,2.65,4.64,3.68,7.29,2.31l0,0
							c2.65-1.38,3.68-4.64,2.31-7.29l-1.86-3.58c0,0,5.44-6.59,4.57-11.68c-0.87-5.09-0.36-0.7-0.36-0.7l-8.63-18.13l-27.1,14.08
							L282.35,157.66z"/>
						<path class="st21" d="M302.59,176.4c4.05-1.66,8.46-4.13,8.46-4.13l-6.6,7.71L302.59,176.4z"/>
					</g>
					<path class="st22" d="M317.03,156.63c-0.3,5.77-1.78,10.77-2.89,11.98c-2.4,2.59-10.61,5.46-10.61,5.46
						c-3.74-0.5-10.02-3.22-15.11-7.48c-5.4-4.51-9.46-10.74-7.75-17.89c2.91-12.15,20.8-17.93,30.38-10.4
						C316.17,142.33,317.38,149.99,317.03,156.63z"/>
					<path class="st23" d="M317.03,156.63c-0.3,5.77-1.78,10.77-2.89,11.98c-2.4,2.59-10.61,5.46-10.61,5.46
						c-3.74-0.5-10.02-3.22-15.11-7.48c0.15-1.85,0.66-3.61,1.87-4.69c3.55-3.19,13.95,4.29,16.3-7.75l2.19-0.75
						C308.78,153.4,313.56,155.26,317.03,156.63z"/>
					<path class="st20" d="M287.3,163.29c0.12-5.14,3.57-4.81,5.29-2.75c1.72,2.06,0.02,10.13-2.18,8.74
						C288.21,167.89,287.3,163.29,287.3,163.29z"/>
					<path class="st21" d="M288.09,164.24c0.89-3.07,2.29-2.73,3.27-0.52c0.98,2.2-0.8,5.07-1.95,4.89
						C288.25,168.43,288.09,164.24,288.09,164.24z"/>
				</g>
				<path class="st8" d="M309.62,141.77c-4.44,1.93-6.41,8.08-3.02,12.39c2.36,3.01,6.56,1.63,6.56,1.63L309.62,141.77z"/>
				<path class="st22" d="M307.39,148.8c-1.39-6.81,5.66-12.58,11.82-9.38c1.59,0.83,2.88,2.13,3.55,3.82
					c2.31,5.78,2.17,13.27,9.24,14.29c0,0-8.52,9.11-17.04,3.62C310.19,158.07,308.21,152.82,307.39,148.8z"/>
				<path class="st37" d="M332.83,175.19c13.77,0.24,28.62,17.88,32.81,29.44c4.19,11.56-6.86,25.63-6.86,25.63L332.83,175.19z"/>
				<path class="st20" d="M249.48,239.74c-5.93-7.59-8.65-8.01-10.53-6.55c-1.88,1.46-8.99,5.56-10.25,6.55
					c-1.25,0.98,0.21,2.45,2.51,2.03s2.3-0.42,2.3-0.42s-1.05,5.44,1.67,7.95c2.72,2.51,11.29-1.05,11.29-1.05L249.48,239.74z"/>
				<path class="st8" d="M358.4,290.13c-1.33,5.9-5.02,16.62-9.85,29.5c-15.13,40.32-41.46,101.72-41.46,101.72l-22.39-2.14
					l33.4-165.96l0.71-3.54c0,0,14.84-21.91,26.4-16.96c2.31,0.99,4.45,2.9,6.33,5.53c2.53,3.5,4.62,8.26,6.12,13.77
					C360.67,263.08,361.33,277.13,358.4,290.13z"/>
				<path class="st8" d="M375.17,420.66l-19.25,0.69l-7.37-101.72l-3.34-46.04v-35.31h21.95c3.54,4.57,6.6,10.89,9.12,18.72
					c0.01,0,0.01,0,0.01,0C387.12,290.58,388.1,351.79,375.17,420.66z"/>
				<polygon class="st26" points="347.98,321.16 366.59,287.13 349.93,338.68 				"/>
				<path class="st26" d="M376.28,257c-0.3-0.15-6.86-3.25-18.62-4.95c-3.65-0.53-7.82-0.92-12.45-1.04
					c-7.76-0.22-16.85,0.33-27.11,2.24l0.71-3.54c0,0,14.84-21.91,26.4-16.96c2.31,0.99,4.45,2.9,6.33,5.53h15.62
					C370.7,242.85,373.76,249.17,376.28,257z"/>
				<path class="st17" d="M367.16,238.28l-48.35,11.43l-16.09-21.36c0,0-8.69,20.6-14.46,23.65c-5.77,3.04-42.23-1.91-42.23-1.91
					c-0.95-1.08-1.04-3.17-0.75-5.42h0.01c0.5-4.06,2.23-8.63,2.23-8.63l28.6-2.71c0,0,8.66-23.32,12.14-34.51
					c3.48-11.18,10.84-12.81,10.84-12.81s0.14-2.76-0.07-3.55c-0.22-0.8,11.69-9.62,19.78-9.62l1.88,1.71c0,0,7.62-3.31,17.52,3.55
					c5.21,3.6,12.94,20.03,19.1,34.82v0.01C362.87,226.28,367.16,238.28,367.16,238.28z"/>
				<path class="st19" d="M367.16,238.28l-48.35,11.43l-16.09-21.36c0,0-8.69,20.6-14.46,23.65c-5.77,3.04-42.23-1.91-42.23-1.91
					c-0.95-1.08-1.04-3.17-0.75-5.42h0.01c10.11-4.61,35.28,6.82,41.54-1.24c6.26-8.07,12.87-30.8,15.9-24.41
					c3.02,6.38,9.22,16.03,16.88,17.68c7.65,1.65,39.16-6.45,37.7-23.77C362.87,226.28,367.16,238.28,367.16,238.28z"/>
			</g>
		</g>
	</g>
</g>
</svg>
